<svg xmlns="http://www.w3.org/2000/svg" overflow="hidden" viewBox="0 0 2823.533 1200"><path d="m11600 3648.05-1024.2 1773.7 897.4 1248.06h-717l-985.1-1497.08v1497.08h-569.43V3648.05h569.43v654.48l432.9 602.12 720.5-1256.6h675.5M11932.5 3648.05h590.2v3021.76h-590.2V3648.05M13690.7 5828.43l1070.2-2178.29h700.4v3019.67h-544.5V4457.37l-1074.4 2212.44h-696.2V3650.14h544.5v2178.29M16695.8 6121.16h442.6c187.1 0 331.8-45.05 434.4-135.09 102.5-90.08 153.8-217.54 153.8-382.39v-889.5c0-164.88-51.3-292.34-153.8-382.39-102.6-90.07-247.3-135.08-434.4-135.08h-442.6zm0-2473.11h428.1c259.1 0 478 45.01 656.7 135.08 178.8 90.05 312.8 216.15 402.2 378.25 89.3 162.1 134 351.91 134 569.44v856.22c0 228.61-46.4 423.97-139.2 586.07-92.9 162.11-228.3 285.4-406.3 369.93-178.1 84.49-393.2 126.77-645.3 126.77H16126.4V3648.05H16695.8M19840.2 5711.75l361.2-1030.81h-722.5zm-553.6-1579.47h1107.1l169.7-484.23h613.1L20021 6669.81h-361.6l-1155.5-3021.76h613l169.7 484.23M9876.58 2612.15c-12.86-25.11-30.76-44.54-53.72-58.31-22.96-13.78-49.44-20.66-79.42-20.66h-290.18v332.4h290.18c30.59 0 57.37-6.88 80.34-20.66 22.95-13.77 40.7-33.37 53.26-58.77 12.53-25.41 18.82-54.63 18.82-87.69 0-32.45-6.43-61.22-19.28-86.31zm80.35 444.88c-63.37 33.99-136.69 50.97-219.93 50.97h-535.33V1772.88h251.59v517.88H9737c83.24 0 156.56 16.83 219.93 50.51 63.37 33.65 112.47 81.26 147.37 142.79 34.9 61.51 52.3 132.98 52.3 214.4 0 81.41-17.4 153.03-52.3 214.87-34.9 61.83-84 109.73-147.37 143.7M10986.7 2571.74c-19.6-12.85-42.2-19.28-67.9-19.28h-313.1v314.03h313.1c26.3 0 49.2-6.42 68.8-19.27 19.6-12.86 34.8-31.22 45.5-55.1 10.7-23.87 16.1-51.42 16.1-82.64-.7-31.22-6.3-58.76-17-82.65-10.7-23.86-25.9-42.22-45.5-55.09zm145.6-212.11c56 33.05 99.3 79.73 129.9 140.04 30.6 60.28 45.9 130.23 45.9 209.81 0 79.57-15.3 149.52-45.9 209.81-30.6 60.3-73.8 106.98-129.5 140.05-55.7 33.05-120.3 49.58-193.7 49.58h-584.9V1772.88h251.6v537.17h152.6l301-537.17h304.8l-319.2 550.44c31.1 8.25 60.2 20.3 87.4 36.31M12230 2244.85c0-46.52-9.3-87.55-28-123.04-18.7-35.51-45.1-62.9-79.4-82.19-34.3-19.29-74.1-28.92-119.4-28.92-45.3 0-85.1 9.63-119.3 28.92-34.3 19.29-60.8 46.68-79.5 82.19-18.7 35.49-28 76.52-28 123.04v391.17c0 46.52 9.3 87.53 28 123.04 18.7 35.5 45.2 62.91 79.5 82.19 34.2 19.28 74 28.92 119.3 28.92s85.1-9.64 119.4-28.92c34.3-19.28 60.7-46.69 79.4-82.19 18.7-35.51 28-76.52 28-123.04zm29 815.86c-73.8 40.7-159.1 61.06-255.8 61.06-96.7 0-181.9-20.36-255.7-61.06-73.8-40.71-130.8-98.26-171.3-172.63-40.4-74.37-60.6-160.55-60.6-258.48v-378.32c0-97.95 20.2-184.11 60.6-258.49 40.5-74.38 97.5-131.92 171.3-172.63 73.8-40.72 159-61.06 255.7-61.06 96.7 0 182 20.34 255.8 61.06 73.7 40.71 130.8 98.25 171.2 172.63 40.4 74.38 60.6 160.54 60.6 258.49v378.32c0 97.93-20.2 184.11-60.6 258.48-40.4 74.37-97.5 131.92-171.2 172.63M13455.9 2174.14c0-50.19-15.8-89.22-47.3-117.07-31.5-27.87-76.1-41.77-133.6-41.77h-284.7v321.37h284.7c37.9 0 70.5-6.28 97.8-18.82 27.2-12.55 47.9-30.75 62-54.64 14-23.86 21.1-52.66 21.1-86.31zm-465.6 691.44h284.7c52 0 92.3-11.94 120.7-35.8 28.5-23.88 42.7-57.26 42.7-100.1 0-47.74-14.2-84.79-42.7-111.1-28.4-26.33-68.7-39.5-120.7-39.5h-284.7zm590.9-462.34c-41.9 27.85-92.3 45.77-151 53.73 55.1 9.17 102.2 26.63 141.4 52.33 39.1 25.71 69 58.61 89.5 98.72 20.5 40.09 30.8 86.15 30.8 138.19 0 75.89-16 140.95-47.8 195.13-31.8 54.18-78.3 95.49-139.6 123.96-61.2 28.46-134.9 42.7-221.2 42.7h-544.6V1772.88h560.2c86.3 0 160.2 14.23 221.7 42.69 61.5 28.46 108.4 69.93 140.5 124.42 32.2 54.48 48.2 119.98 48.2 196.5v2.77c0 58.76-10.9 110.48-32.6 155.18-21.7 44.68-53.6 80.94-95.5 108.8M14204.3 3108h-251.7V1772.88h894.4v242.42h-642.7V3108M15121.6 3108h-90.9V1772.88h894.3v242.42h-642.7v299.34h541.7v242.41h-541.7v308.53h642.7V3108H15121.6M16740.4 2208.12 16486.1 3108h-331.5V1772.88h228.6v930.42l246.1-781.67h222.2l246.1 799.38v-948.13h228.7V3108h-331.5l-254.4-899.88M17904 2229.24l159.6 455.44 159.6-455.44zm79.7 878.76-510.5-1335.12h270.9l75 213.94h489.1l75-213.94h270.9L18143.5 3108h-159.8M18599 2865.58h363.6v-1092.7h251.6v1092.7h363.6V3108H18599v-242.42M19706.4 1772.88h260.7V3108h-260.7V1772.88M20502 2756.77c17.5 37.03 42.7 65.2 75.8 84.48 33 19.28 73.1 28.92 120.3 28.92 36.1 0 68.7-8.26 97.8-24.78 29-16.54 53.8-40.41 74.3-71.63s35.7-68.87 45.5-112.94h260.8c-16.6 97.33-46.4 180.43-89.6 249.3-43.1 68.87-97.7 121.35-163.9 157.47-66.1 36.12-141.1 54.18-224.9 54.18-101.7 0-188.6-19.6-260.8-58.77-72.3-39.17-127.3-95.96-165.3-170.33-38-74.38-56.9-164.22-56.9-269.5v-366.38c0-105.3 18.9-195.13 56.9-269.51s93-131.01 165.3-169.88c72.2-38.88 159.1-58.3 260.8-58.3 83.8 0 158.7 18.05 224.5 54.18 65.8 36.11 120.3 88.6 163.4 157.47 43.2 68.87 73.3 151.98 90.5 249.31h-260.8c-9.2-44.7-23.9-82.65-44.1-113.86-20.2-31.22-45-54.95-74.4-71.17-29.4-16.22-62.4-24.33-99.1-24.33-47.2 0-87.3 9.63-120.3 28.92-33.1 19.29-58.3 47.29-75.8 84.02-17.4 36.73-26.2 81.11-26.2 133.15v366.38c0 52.02 8.8 96.55 26.2 133.6M6458.67 1164.75C5804.53 665.59 5024.73 400.801 4203.56 399l-8.39-.02c-1816.77.059-3773.955 1324.37-3904.459 3540.45C172.016 5955.09 1755.76 7690.32 3821.14 7807.56c76.88 4.36 154.84 6.58 231.71 6.58 1947.33 0 3600.33-1387.25 3845.01-3226.86 170.5-1281.87-394.42-2625.3-1439.19-3422.53zm1392.44 4628.73c-213.08 482-508.08 914.87-876.8 1286.6-769.9 776.17-1553.74 1348.82-2631.28 1348.82-51.48 0-337.38-146.17-389.06-148.1-851.38-31.95-1646.55-315.1-2299.55-818.86-607.06-468.32-1078.291-1110.33-1362.725-1856.63C-2.085 4834.49-75.707 4013.81 78.785 3232 243.496 2398.49 665.543 1654.44 1299.3 1080.3 2057.1 393.75 3099.33 0 4158.77 0l20.59.05c368.8 1.782 731.4 51.18 1077.72 146.821C6162.06 396.789 6924.85 930.32 7462.99 1689.77c521.3 735.69 787.44 1644.1 749.42 2557.91-22.21 533.67-143.77 1053.76-361.3 1545.8" style="fill:#100f0d;fill-opacity:1;fill-rule:nonzero;stroke:none" transform="matrix(.13333 0 0 -.13333 0 1123.853)"/><path d="M5637.92 3157.76c-100.11 53.69-207.92 102.06-284.88 111.84-262.62 33.4-540.51 28.15-825.96-15.59-53.99-8.27-108.75-18.04-162.75-29.02-719-146.35-1337.13-508.28-1695.89-992.99-103.94-140.42-159.99-267.67-166.61-378.2-9.93-166.16 16.95-204.28 25.43-212.01 6.59-6.01 25.94-7.41 50.5-3.64 16.93 2.59 36.29 7.56 57.53 14.77 81.25 27.57 154.95 85.74 232.99 147.32l18.74 14.76c676.59 531.91 1455.1 877.55 2251.36 999.57 29.34 4.49 59.07 8.73 88.39 12.6 39.82 5.25 79.78 9.98 119.79 14.71 61.18 7.24 124.45 14.72 185.32 24.05 20.29 3.11 45.3 8.75 72.7 16 131.06 34.67 152.81 211.75 33.34 275.83M2703.33 4751.25c99.4-51.93 224.61-62.75 322.85-8.67 194.1 106.82 341.8 482.44 342.01 666.77.32 266.81-166.56 513.6-220.74 775.92-11.72 56.76-27.61 114.33-62.17 160.87-194.94 262.53-531.06-102.61-634.27-278.39-190.73-324.81-177.28-762.01 18.07-1080.78a945.269 945.269 0 0 1 20.64-32.24c55.57-82.93 125.5-157.45 213.61-203.48M5618.05 6381.08c-194.94 262.53-531.06-102.62-634.27-278.39-190.73-324.81-177.28-762.01 18.06-1080.78a961.212 961.212 0 0 1 20.65-32.24c55.56-82.94 125.5-157.45 213.61-203.49 99.4-51.93 224.61-62.75 322.85-8.67 194.1 106.83 341.8 482.45 342.01 666.77.32 266.81-166.56 513.61-220.74 775.92-11.72 56.76-27.61 114.33-62.17 160.88" style="fill:#100f0d;fill-opacity:1;fill-rule:nonzero;stroke:none" transform="matrix(.13333 0 0 -.13333 0 1123.853)"/></svg>